<?xml version="1.0" encoding="UTF-8" standalone="no"?><!-- Generator: Gravit.io --><svg xmlns="http://www.w3.org/2000/svg" xmlns:xlink="http://www.w3.org/1999/xlink" style="isolation:isolate" viewBox="0 0 512 512" width="512pt" height="512pt"><path d=" M 336 480 L 304 416 L 272 480 L 256 512 L 224 512 L 144 512 L 112 512 L 128 480 L 352 32 L 272 32 L 32 512 L 0 512 L 240 32 L 256 0 L 288 0 L 368 0 L 400 0 L 384 32 L 160 480 L 240 480 L 304 352 L 368 480 L 448.516 480 L 348 264 L 480 0 L 512 0 L 380 264 L 496 512 L 464 512 L 384 512 L 352 512 L 336 480 Z " fill="#1d2d50"/></svg>
